{
  "accessors": [
    {
      "bufferView": 2,
      "componentType": 5126,
      "count": 65532,
      "max": [
        1.831907033920288,
        -5.634134769439697,
        1.6105270385742188
      ],
      "min": [
        -1.4173979759216309,
        -9.524486541748047,
        -2.2336230278015137
      ],
      "type": "VEC3"
    },
    {
      "bufferView": 2,
      "byteOffset": 786384,
      "componentType": 5126,
      "count": 65532,
      "max": [
        0.9999963641166687,
        0.9999571442604065,
        0.9998757839202881
      ],
      "min": [
        -0.9999982118606567,
        -0.9999778866767883,
        -0.9998963475227356
      ],
      "type": "VEC3"
    },
    {
      "bufferView": 1,
      "componentType": 5126,
      "count": 65532,
      "max": [
        0.9802380204200745,
        0.999144971370697
      ],
      "min": [
        0.0038840000052005053,
        0.0033360000234097242
      ],
      "type": "VEC2"
    },
    {
      "bufferView": 0,
      "componentType": 5125,
      "count": 335178,
      "type": "SCALAR"
    },
    {
      "bufferView": 2,
      "byteOffset": 1572768,
      "componentType": 5126,
      "count": 59517,
      "max": [
        1.8352539539337158,
        -5.652379035949707,
        1.400629997253418
      ],
      "min": [
        -1.378970980644226,
        -9.420796394348145,
        -2.2316770553588867
      ],
      "type": "VEC3"
    },
    {
      "bufferView": 2,
      "byteOffset": 2286972,
      "componentType": 5126,
      "count": 59517,
      "max": [
        0.9999963641166687,
        0.9999382495880127,
        0.9998757839202881
      ],
      "min": [
        -0.9999685883522034,
        -0.9998459815979004,
        -0.9996346235275269
      ],
      "type": "VEC3"
    },
    {
      "bufferView": 1,
      "byteOffset": 524256,
      "componentType": 5126,
      "count": 59517,
      "max": [
        0.9975680112838745,
        1.0000300407409668
      ],
      "min": [
        0.0009670000290498137,
        0.0036879999097436666
      ],
      "type": "VEC2"
    },
    {
      "bufferView": 0,
      "byteOffset": 1340712,
      "componentType": 5125,
      "count": 264822,
      "type": "SCALAR"
    }
  ],
  "asset": {
    "extras": {
      "author": "Minneapolis Institute of Art (https://sketchfab.com/artsmia)",
      "license": "CC0-1.0 (http://creativecommons.org/publicdomain/zero/1.0/)",
      "source": "https://sketchfab.com/3d-models/fangding-chinese-food-vessel-aae4f51f1c874a0dad5f59eec2340811",
      "title": "Fangding (Chinese food vessel)"
    },
    "generator": "Sketchfab-12.63.0",
    "version": "2.0"
  },
  "bufferViews": [
    {
      "buffer": 0,
      "byteLength": 2400000,
      "name": "floatBufferViews",
      "target": 34963
    },
    {
      "buffer": 0,
      "byteLength": 1000392,
      "byteOffset": 2400000,
      "byteStride": 8,
      "name": "floatBufferViews",
      "target": 34962
    },
    {
      "buffer": 0,
      "byteLength": 3001176,
      "byteOffset": 3400392,
      "byteStride": 12,
      "name": "floatBufferViews",
      "target": 34962
    }
  ],
  "buffers": [
    {
      "byteLength": 6401568,
      "uri": "scene.bin"
    }
  ],
  "images": [
    {
      "uri": "textures/material_0_baseColor.jpeg"
    }
  ],
  "materials": [
    {
      "doubleSided": true,
      "name": "material_0",
      "pbrMetallicRoughness": {
        "baseColorTexture": {
          "index": 0
        },
        "metallicFactor": 0.0,
        "roughnessFactor": 0.08265050028373826
      }
    }
  ],
  "meshes": [
    {
      "name": "Object_0",
      "primitives": [
        {
          "attributes": {
            "NORMAL": 1,
            "POSITION": 0,
            "TEXCOORD_0": 2
          },
          "indices": 3,
          "material": 0,
          "mode": 4
        }
      ]
    },
    {
      "name": "Object_1",
      "primitives": [
        {
          "attributes": {
            "NORMAL": 5,
            "POSITION": 4,
            "TEXCOORD_0": 6
          },
          "indices": 7,
          "material": 0,
          "mode": 4
        }
      ]
    }
  ],
  "nodes": [
    {
      "children": [
        1
      ],
      "matrix": [
        0.693069261803501,
        0.0019758813987323315,
        -0.03541799487523578,
        0.0,
        -0.02379764523734651,
        -0.4879411555176779,
        -0.49290002236307384,
        0.0,
        -0.026306093075456616,
        0.4934701867783532,
        -0.48723556464450357,
        0.0,
        -0.2714102566242218,
        -5.419444561004639,
        1.9886494874954213,
        1.0
      ],
      "name": "Sketchfab_model"
    },
    {
      "children": [
        2,
        3
      ],
      "name": "Mia_FangDing_50_46_81_LowRes_200kFaces_OBJ.obj.cleaner"
    },
    {
      "mesh": 0,
      "name": "Object_2"
    },
    {
      "mesh": 1,
      "name": "Object_3"
    }
  ],
  "samplers": [
    {
      "magFilter": 9729,
      "minFilter": 9987,
      "wrapS": 10497,
      "wrapT": 10497
    }
  ],
  "scene": 0,
  "scenes": [
    {
      "name": "Sketchfab_Scene",
      "nodes": [
        0
      ]
    }
  ],
  "textures": [
    {
      "sampler": 0,
      "source": 0
    }
  ]
}
