{
  "accessors": [
    {
      "bufferView": 2,
      "componentType": 5126,
      "count": 65532,
      "max": [
        0.8687080144882202,
        0.8380579948425293,
        0.9139770269393921
      ],
      "min": [
        -0.8354430198669434,
        -0.8598880171775818,
        -0.6138569712638855
      ],
      "type": "VEC3"
    },
    {
      "bufferView": 2,
      "byteOffset": 786384,
      "componentType": 5126,
      "count": 65532,
      "max": [
        0.9999520778656006,
        0.9999794960021973,
        0.9999998807907104
      ],
      "min": [
        -0.999984860420227,
        -0.9999839067459106,
        -0.9999998807907104
      ],
      "type": "VEC3"
    },
    {
      "bufferView": 3,
      "componentType": 5126,
      "count": 65532,
      "max": [
        0.9998486638069153,
        0.9999983906745911,
        0.9999975562095642,
        1.0
      ],
      "min": [
        -0.9999005794525146,
        -0.9999833106994629,
        -0.9999896287918091,
        -1.0
      ],
      "type": "VEC4"
    },
    {
      "bufferView": 1,
      "componentType": 5126,
      "count": 65532,
      "max": [
        0.9998490214347839,
        0.9998040199279785
      ],
      "min": [
        0.0,
        0.0
      ],
      "type": "VEC2"
    },
    {
      "bufferView": 0,
      "componentType": 5125,
      "count": 282096,
      "type": "SCALAR"
    },
    {
      "bufferView": 2,
      "byteOffset": 1572768,
      "componentType": 5126,
      "count": 65130,
      "max": [
        0.8555949926376343,
        0.855866014957428,
        0.9131699800491333
      ],
      "min": [
        -0.8345810174942017,
        -0.8380630016326904,
        -0.615119993686676
      ],
      "type": "VEC3"
    },
    {
      "bufferView": 2,
      "byteOffset": 2354328,
      "componentType": 5126,
      "count": 65130,
      "max": [
        0.9998786449432373,
        0.999984622001648,
        0.9999990463256836
      ],
      "min": [
        -0.999984860420227,
        -0.9998736381530762,
        -1.0
      ],
      "type": "VEC3"
    },
    {
      "bufferView": 3,
      "byteOffset": 1048512,
      "componentType": 5126,
      "count": 65130,
      "max": [
        0.9999852180480957,
        0.999989926815033,
        0.9999991059303284,
        1.0
      ],
      "min": [
        -0.9999818801879883,
        -0.9999960064888,
        -0.9999870657920837,
        -1.0
      ],
      "type": "VEC4"
    },
    {
      "bufferView": 1,
      "byteOffset": 524256,
      "componentType": 5126,
      "count": 65130,
      "max": [
        0.9999060034751892,
        1.0
      ],
      "min": [
        0.0,
        0.0
      ],
      "type": "VEC2"
    },
    {
      "bufferView": 0,
      "byteOffset": 1128384,
      "componentType": 5125,
      "count": 264600,
      "type": "SCALAR"
    }
  ],
  "asset": {
    "extras": {
      "author": "PAR - Arqueología y Patrimonio Virtual (https://sketchfab.com/archeo_pablo)",
      "license": "CC-BY-4.0 (http://creativecommons.org/licenses/by/4.0/)",
      "source": "https://sketchfab.com/3d-models/capitel-romano-s-iii-dc-museo-de-split-e005471f537f4f05a464f70882cae945",
      "title": "Capitel romano (s. III d.C.) / Museo de Split"
    },
    "generator": "Sketchfab-14.64.0",
    "version": "2.0"
  },
  "bufferViews": [
    {
      "buffer": 0,
      "byteLength": 2186784,
      "name": "floatBufferViews",
      "target": 34963
    },
    {
      "buffer": 0,
      "byteLength": 1045296,
      "byteOffset": 2186784,
      "byteStride": 8,
      "name": "floatBufferViews",
      "target": 34962
    },
    {
      "buffer": 0,
      "byteLength": 3135888,
      "byteOffset": 3232080,
      "byteStride": 12,
      "name": "floatBufferViews",
      "target": 34962
    },
    {
      "buffer": 0,
      "byteLength": 2090592,
      "byteOffset": 6367968,
      "byteStride": 16,
      "name": "floatBufferViews",
      "target": 34962
    }
  ],
  "buffers": [
    {
      "byteLength": 8458560,
      "uri": "scene.bin"
    }
  ],
  "images": [
    {
      "uri": "textures/Capitel_Split_001_baseColor.jpeg"
    },
    {
      "uri": "textures/Capitel_Split_001_metallicRoughness.png"
    },
    {
      "uri": "textures/Capitel_Split_001_normal.jpeg"
    }
  ],
  "materials": [
    {
      "doubleSided": true,
      "name": "Capitel_Split_001",
      "normalTexture": {
        "index": 2
      },
      "occlusionTexture": {
        "index": 1
      },
      "pbrMetallicRoughness": {
        "baseColorTexture": {
          "index": 0
        },
        "metallicFactor": 0.0,
        "metallicRoughnessTexture": {
          "index": 1
        }
      }
    }
  ],
  "meshes": [
    {
      "name": "Object_0",
      "primitives": [
        {
          "attributes": {
            "NORMAL": 1,
            "POSITION": 0,
            "TANGENT": 2,
            "TEXCOORD_0": 3
          },
          "indices": 4,
          "material": 0,
          "mode": 4
        }
      ]
    },
    {
      "name": "Object_1",
      "primitives": [
        {
          "attributes": {
            "NORMAL": 6,
            "POSITION": 5,
            "TANGENT": 7,
            "TEXCOORD_0": 8
          },
          "indices": 9,
          "material": 0,
          "mode": 4
        }
      ]
    }
  ],
  "nodes": [
    {
      "children": [
        1
      ],
      "matrix": [
        0.564087450504303,
        0.0,
        0.0,
        0.0,
        0.0,
        1.252525750903961e-16,
        -0.564087450504303,
        0.0,
        0.0,
        0.564087450504303,
        1.252525750903961e-16,
        0.0,
        0.0,
        0.0,
        0.0,
        1.0
      ],
      "name": "Sketchfab_model"
    },
    {
      "children": [
        2,
        3
      ],
      "name": "Capitel_Split_001_LP.obj.cleaner.materialmerger.gles"
    },
    {
      "mesh": 0,
      "name": "Object_2"
    },
    {
      "mesh": 1,
      "name": "Object_3"
    }
  ],
  "samplers": [
    {
      "magFilter": 9729,
      "minFilter": 9987,
      "wrapS": 10497,
      "wrapT": 10497
    }
  ],
  "scene": 0,
  "scenes": [
    {
      "name": "Sketchfab_Scene",
      "nodes": [
        0
      ]
    }
  ],
  "textures": [
    {
      "sampler": 0,
      "source": 0
    },
    {
      "sampler": 0,
      "source": 1
    },
    {
      "sampler": 0,
      "source": 2
    }
  ]
}
